HIERARCHY
ROOT Hips
{
	OFFSET	0.00	0.00	0.00
	CHANNELS 6 Xposition Yposition Zposition Zrotation Xrotation Yrotation
	JOINT LeftUpLeg
	{
		OFFSET	 3.91	 0.00	 0.00
		CHANNELS 3 Zrotation Xrotation Yrotation
		JOINT LeftLowLeg
		{
			OFFSET	 0.00	-18.34	 0.00
			CHANNELS 3 Zrotation Xrotation Yrotation
			JOINT LeftFoot
			{
				OFFSET	 0.00	-17.37	 0.00
				CHANNELS 3 Zrotation Xrotation Yrotation
				End Site 
				{
					OFFSET	 0.00	-3.46	 0.00
				}
			}
		}
	}
}
MOTION
Frames:    2
Frame Time: 0.033333
 0.00	 0.00	 0.00	8.03	 35.01	 88.36	-3.41	 14.78	-164.35	 13.09	 40.30	-24.60	 7.88	 43.80	 0.00
 0.00	 0.00	 0.00	0.00	 0.00	 0.00	 0.00	 0.00	 0.00	 0.00	 0.00	 0.00	0.00	 0.00	 0.00
